<?xml version="1.0" standalone="no"?>
<!DOCTYPE svg PUBLIC "-//W3C//DTD SVG 20010904//EN"
 "http://www.w3.org/TR/2001/REC-SVG-20010904/DTD/svg10.dtd">
<svg version="1.0" xmlns="http://www.w3.org/2000/svg"
 width="700.000000pt" height="700.000000pt" viewBox="0 0 700.000000 700.000000"
 preserveAspectRatio="xMidYMid meet">
<metadata>
Created by potrace 1.11, written by Peter Selinger 2001-2013
</metadata>
<g transform="translate(0.000000,700.000000) scale(0.100000,-0.100000)"
fill="#000000" stroke="none">
<path d="M1011 6478 l-459 -459 -1 -2552 0 -2552 427 -427 427 -428 425 0 425
0 426 426 426 426 851 0 850 1 460 461 460 461 0 425 0 425 -425 425 -425 425
-852 0 -851 0 0 390 0 390 1243 1 1244 1 458 458 458 457 0 427 0 426 -426
427 -426 427 -2128 -1 -2128 0 -459 -460z m4645 -850 c1 -351 0 -388 -15 -389
-9 0 -567 -1 -1241 -1 l-1225 0 -462 -461 -462 -461 0 -425 1 -424 425 -426
426 -426 851 0 851 0 0 -390 0 -390 -818 -2 -817 -1 -426 -426 -426 -426 -423
0 -422 0 -1 2513 c0 1535 4 2514 10 2518 5 3 946 5 2091 5 l2082 -1 1 -387z"/>
</g>
</svg>
